<svg width="9" height="16" viewBox="0 0 9 16" fill="none" xmlns="http://www.w3.org/2000/svg">
<path d="M0.0315905 15.2472C0.111072 15.473 0.270034 15.6827 0.481983 15.8387C0.683335 15.9839 0.74692 16 1.10723 16C1.45695 16 1.53643 15.9839 1.71659 15.8548C1.82786 15.7742 3.48637 14.118 5.39921 12.1714C9.18781 8.32138 9.02885 8.5042 8.98646 7.90733C8.97056 7.65998 8.92817 7.55244 8.77451 7.33735C8.66853 7.19217 7.03652 5.50911 5.14487 3.60021C1.40396 -0.185334 1.58412 -0.0293956 0.995961 0.0136219C0.651543 0.0405078 0.423697 0.180315 0.164059 0.524455C0.0315905 0.696525 0.0156943 0.766428 0.0156943 1.1267C0.0156943 1.47084 0.0368892 1.56763 0.142864 1.72357C0.211748 1.82573 1.62121 3.28295 3.26912 4.96063L6.26821 8.01488L3.26912 11.0637C1.62121 12.7468 0.217046 14.1986 0.148163 14.2954C0.020993 14.4836 -0.0425918 15.0321 0.0315905 15.2472Z" fill="black"/>
</svg>
