<?xml version="1.0" standalone="no"?>
<!DOCTYPE svg PUBLIC "-//W3C//DTD SVG 20010904//EN"
 "http://www.w3.org/TR/2001/REC-SVG-20010904/DTD/svg10.dtd">
<svg version="1.0" xmlns="http://www.w3.org/2000/svg"
 width="56.000000pt" height="46.000000pt" viewBox="0 0 56.000000 46.000000"
 preserveAspectRatio="xMidYMid meet">

<g transform="translate(0.000000,46.000000) scale(0.100000,-0.100000)"
fill="#000000" stroke="none">
<path d="M88 413 c-28 -7 -21 -23 11 -23 27 0 29 -3 55 -97 15 -54 30 -106 32
-115 5 -16 19 -18 108 -18 l104 0 36 84 c20 47 36 87 36 90 0 3 -52 6 -116 6
-88 0 -115 -3 -112 -12 3 -9 34 -14 96 -16 51 -1 92 -4 92 -6 0 -2 -11 -29
-25 -60 l-25 -56 -84 0 -85 0 -14 53 c-8 28 -22 77 -31 108 -9 31 -23 60 -32
63 -17 6 -19 6 -46 -1z"/>
<path d="M167 113 c-4 -3 -7 -17 -7 -30 0 -18 5 -23 25 -23 14 0 28 7 31 15
11 27 -30 58 -49 38z"/>
<path d="M377 113 c-4 -3 -7 -17 -7 -30 0 -18 5 -23 25 -23 14 0 28 7 31 15
11 27 -30 58 -49 38z"/>
</g>
</svg>
